<?xml version="1.0" encoding="UTF-8"?>
<svg width="48px" height="48px" viewBox="0 0 48 48" version="1.1" xmlns="http://www.w3.org/2000/svg" xmlns:xlink="http://www.w3.org/1999/xlink">
    <!-- Generator: Sketch 43.2 (39069) - http://www.bohemiancoding.com/sketch -->
    <title>Artboard 2</title>
    <desc>Created with Sketch.</desc>
    <defs>
        <path d="M19.1286336,19.4111586 C19.2814495,19.8649322 19.3642754,20.3508866 19.3642754,20.856186 C19.3642754,21.2096895 19.323738,21.553725 19.2470582,21.8838975 L26.3834571,24.9131191 C27.3671479,23.8634679 28.7660229,23.2076388 30.318075,23.2076388 C33.2956365,23.2076388 35.7094269,25.6214292 35.7094269,28.5989907 C35.7094269,31.5765521 33.2956365,33.9903426 30.318075,33.9903426 C29.3437131,33.9903426 28.4297213,33.7318675 27.6409265,33.2797442 L12.7148099,41.5534257 C15.4687906,42.8135694 18.5313528,43.5159116 21.7579558,43.5159116 C33.774543,43.5159116 43.5159116,33.774543 43.5159116,21.7579558 C43.5159116,9.74136863 33.774543,0 21.7579558,0 C9.74136863,0 0,9.74136863 0,21.7579558 C0,29.3513507 3.88982139,36.036229 9.78554945,39.9286762 C9.8046709,39.9168938 9.82416253,39.9054912 9.84402003,39.894484 L25.5793033,31.1722741 C25.1631542,30.4075432 24.9267231,29.5308776 24.9267231,28.5989907 C24.9267231,27.9363967 25.0462521,27.3017201 25.2649238,26.7153473 L18.3078668,23.7622518 C17.4778275,24.7518821 16.2320865,25.3810706 14.8393907,25.3810706 C12.340366,25.3810706 10.3145061,23.3552108 10.3145061,20.856186 C10.3145061,18.3571612 12.340366,16.3313014 14.8393907,16.3313014 C16.3089658,16.3313014 17.6149139,17.0318719 18.4414803,18.1172582 L24.9279753,14.8122239 C24.9271425,14.7846734 24.9267231,14.7570189 24.9267231,14.7292664 C24.9267231,13.2404857 26.1336184,12.0335905 27.6223991,12.0335905 C29.1111798,12.0335905 30.318075,13.2404857 30.318075,14.7292664 C30.318075,16.2180471 29.1111798,17.4249424 27.6223991,17.4249424 C26.6873644,17.4249424 25.86352,16.9488804 25.380025,16.2259156 L19.1286336,19.4111586 Z" id="path-1"></path>
    </defs>
    <g id="Page-1" stroke="none" stroke-width="1" fill="none" fill-rule="evenodd">
        <g id="Artboard-2">
            <g id="Group" transform="translate(2.000000, 2.000000)">
                <mask id="mask-2" fill="white">
                    <use xlink:href="#path-1"></use>
                </mask>
                <use id="Combined-Shape" fill="#FFFFFF" xlink:href="#path-1"></use>
            </g>
        </g>
    </g>
</svg>